Coordinates
version=1
nRows=4
nColumns=107
inDegrees=yes

Units are S.I. units (second, meters, Newtons, ...)
If the header above contains a line with 'inDegrees', this indicates whether rotational values are in degrees (yes) or radians (no).

endheader
time	sternoclavicular_r2	sternoclavicular_r3	unrotscap_r3	unrotscap_r2	acromioclavicular_r2	acromioclavicular_r3	acromioclavicular_r1	unrothum_r1	unrothum_r3	unrothum_r2	elv_angle	shoulder_elv	shoulder1_r2	shoulder_rot	elbow_flexion	pro_sup	deviation	flexion	proximal_distal_r1	proximal_distal_r3	cmc_flexion	cmc_abduction	mp_flexion	ip_flexion	mcp2_flexion	mcp2_abduction	pm2_flexion	md2_flexion	mcp3_flexion	mcp3_abduction	pm3_flexion	md3_flexion	mcp4_flexion	mcp4_abduction	pm4_flexion	md4_flexion	mcp5_flexion	mcp5_abduction	pm5_flexion	md5_flexion	bicpt_tx	bicpt_ty	bicpt_tz	bicpt2_tx	bicpt2_ty	bicpt2_tz	ptpt_tx	ptpt_ty	ptpt_tz	FCUpt_tx	FCUpt_ty	FCUpt_tz	EDCpt_tx	EDCpt_ty	EDCpt_tz	APLpt_tx	APLpt_ty	APLpt_tz	FPLpt_tx	FPLpt_ty	FPLpt_tz	FPLpt2_tx	FPLpt2_ty	FPLpt2_tz	PEC1pt2_tx	PEC1pt2_ty	PEC1pt2_tz	PEC1pt3_tx	PEC1pt3_ty	PEC1pt3_tz	PEC2pt2_tx	PEC2pt2_ty	PEC2pt2_tz	PEC2pt3_tx	PEC2pt3_ty	PEC2pt3_tz	PEC3pt2_tx	PEC3pt2_ty	PEC3pt2_tz	PEC3pt3_tx	PEC3pt3_ty	PEC3pt3_tz	DELT2pt2a_tx	DELT2pt2a_ty	DELT2pt2a_tz	DELT2pt2_tx	DELT2pt2_ty	DELT2pt2_tz	LAT1pt2_tx	LAT1pt2_ty	LAT1pt2_tz	LAT1pt3_tx	LAT1pt3_ty	LAT1pt3_tz	LAT2pt2_tx	LAT2pt2_ty	LAT2pt2_tz	LAT2pt3_tx	LAT2pt3_ty	LAT2pt3_tz	LAT3pt2_tx	LAT3pt2_ty	LAT3pt2_tz	LAT3pt3_tx	LAT3pt3_ty	LAT3pt3_tz
      0.56666667	     -0.32065401	      0.13581391	     -0.13581391	      0.32065401	     -0.06492591	      0.52470840	      0.23585282	     -0.23585282	     -0.52470840	      0.06492591	     99.33213242	     75.91768736	     -1.73367276	    -24.34329313	     28.27799990	     17.56171170	      0.06353429	     -0.89655763	      0.08292103	     -0.44827881	      1.84127182	      9.55180631	    -36.70286735	    -51.38061894	     32.58753688	      8.07694599	     20.67573921	    -22.68516666	     89.02290372	      3.54043832	     82.53035645	     36.88667947	     75.77306577	    -10.98068002	     85.69640039	     24.53768180	     18.69993062	     -0.35464469	     -8.01205243	      5.00159958	      0.00083535	     -0.03084109	     -0.00482205	      0.01595657	     -0.01788186	     -0.00951239	      0.00625239	     -0.06573906	     -0.00146469	      0.00559888	     -0.18389035	     -0.00003755	     -0.00210740	      0.00054517	      0.00017107	      0.00024415	      0.00009766	      0.00048830	      0.00031251	      0.00093753	      0.00052736	      0.00003525	     -0.00004415	     -0.00005298	      0.00248842	      0.00873054	      0.00607342	     -0.00814007	      0.01965426	     -0.01864203	      0.00248842	      0.00873054	      0.00607342	      0.00054829	      0.01822026	     -0.00957407	      0.00393849	      0.00485494	      0.01594450	      0.00000000	      0.00770753	      0.00000000	     -0.00712783	     -0.03293987	     -0.00635481	      0.01615642	     -0.00056893	     -0.00494995	     -0.00088571	      0.01484614	     -0.00607342	      0.00244624	      0.02142568	     -0.01771414	     -0.00594689	      0.01286384	     -0.00544077	     -0.01239990	      0.02716168	     -0.03040928	     -0.02328144	      0.01438220	     -0.00729654	     -0.01543661	      0.03137934	     -0.03800105
      0.60000000	     -0.32032604	      0.13567499	     -0.13567499	      0.32032604	     -0.06485951	      0.52417173	      0.23561158	     -0.23561158	     -0.52417173	      0.06485951	     99.44697410	     75.84003786	     -1.73567713	    -24.78223605	     28.20374879	     17.75163375	      0.05686816	     -0.91089153	      0.07453114	     -0.45544576	      1.77340989	      9.75232443	    -36.78891479	    -51.27989775	     33.06547193	      8.01450294	     20.15023034	    -22.04853689	     89.24207280	      3.36341638	     82.42875989	     35.13897564	     75.79348479	    -11.11660143	     86.19547766	     23.72145917	     18.73179619	     -0.53837808	     -7.93079699	      4.98679138	      0.00083289	     -0.03083258	     -0.00482068	      0.01596664	     -0.01786169	     -0.00949807	      0.00623835	     -0.06574813	     -0.00147999	      0.00561669	     -0.18388761	     -0.00004210	     -0.00213019	      0.00055159	      0.00017200	      0.00023712	      0.00009485	      0.00047423	      0.00030351	      0.00091053	      0.00051217	      0.00003456	     -0.00004259	     -0.00005111	      0.00248587	      0.00872161	      0.00606721	     -0.00813174	      0.01963416	     -0.01862296	      0.00248587	      0.00872161	      0.00606721	      0.00054773	      0.01820162	     -0.00956428	      0.00393554	      0.00484998	      0.01593726	      0.00000000	      0.00769167	      0.00000000	     -0.00712054	     -0.03290618	     -0.00634163	      0.01638294	     -0.00058316	     -0.00513228	     -0.00088480	      0.01483095	     -0.00606721	      0.00244374	      0.02140376	     -0.01769602	     -0.00594081	      0.01285068	     -0.00543521	     -0.01238722	      0.02713390	     -0.03037817	     -0.02325763	      0.01436749	     -0.00728908	     -0.01542082	      0.03134724	     -0.03796218
      0.63333333	     -0.32119402	      0.13604263	     -0.13604263	      0.32119402	     -0.06503526	      0.52559206	      0.23625001	     -0.23625001	     -0.52559206	      0.06503526	     99.23018024	     76.04553965	     -1.73189336	    -23.65823024	     28.17155071	     16.71240717	      0.06251789	     -0.91272599	      0.08164697	     -0.45636300	      1.87770791	      9.73482271	    -36.80510762	    -51.65445424	     33.27165487	      8.04635153	     19.80458591	    -21.77009179	     89.39887991	      3.40951017	     82.30246840	     35.60439879	     75.80168350	    -11.10630838	     86.06200987	     23.92542369	     18.81123512	     -0.48083485	     -7.74030616	      4.99321801	      0.00083183	     -0.03082889	     -0.00482009	      0.01591056	     -0.01785294	     -0.00957583	      0.00631514	     -0.06569848	     -0.00139627	      0.00551936	     -0.18390251	     -0.00001690	     -0.00200548	      0.00051662	      0.00016664	      0.00023619	      0.00009448	      0.00047239	      0.00030233	      0.00090698	      0.00051018	      0.00003560	     -0.00004498	     -0.00005398	      0.00249261	      0.00874524	      0.00608365	     -0.00815378	      0.01968736	     -0.01867342	      0.00249261	      0.00874524	      0.00608365	      0.00054922	      0.01825094	     -0.00959020	      0.00394334	      0.00486312	      0.01595639	      0.00000000	      0.00773370	      0.00000000	     -0.00713984	     -0.03299534	     -0.00637653	      0.01579777	     -0.00054686	     -0.00467082	     -0.00088720	      0.01487114	     -0.00608365	      0.00245036	      0.02146176	     -0.01774397	     -0.00595691	      0.01288551	     -0.00544993	     -0.01242078	      0.02720743	     -0.03046049	     -0.02332065	      0.01440642	     -0.00730883	     -0.01546261	      0.03143218	     -0.03806505
      0.66666667	     -0.32143611	      0.13614517	     -0.13614517	      0.32143611	     -0.06508427	      0.52598821	      0.23642808	     -0.23642808	     -0.52598821	      0.06508427	     99.17141463	     76.10285715	     -1.73086771	    -23.33017967	     28.18524118	     16.54840910	      0.06876463	     -0.90791631	      0.08945309	     -0.45395815	      1.94844771	      9.57564787	    -36.82120821	    -51.81309868	     33.34307613	      8.21846465	     20.26242436	    -22.51987856	     89.37225624	      3.50348020	     82.21997156	     35.75015196	     75.88696385	    -11.11638181	     85.98128344	     24.38535954	     18.94549957	     -0.51279981	     -7.60389101	      4.98723637	      0.00083228	     -0.03083046	     -0.00482034	      0.01590149	     -0.01785666	     -0.00958796	      0.00632726	     -0.06569064	     -0.00138306	      0.00550403	     -0.18390483	     -0.00001285	     -0.00198580	      0.00051113	      0.00016574	      0.00023860	      0.00009544	      0.00047721	      0.00030541	      0.00091624	      0.00051539	      0.00003646	     -0.00004663	     -0.00005596	      0.00249448	      0.00875184	      0.00608823	     -0.00815992	      0.01970220	     -0.01868750	      0.00249448	      0.00875184	      0.00608823	      0.00054963	      0.01826470	     -0.00959742	      0.00394551	      0.00486678	      0.01596170	      0.00000000	      0.00774544	      0.00000000	     -0.00714522	     -0.03302021	     -0.00638628	      0.01562378	     -0.00053635	     -0.00453958	     -0.00088787	      0.01488235	     -0.00608823	      0.00245221	      0.02147794	     -0.01775735	     -0.00596140	      0.01289522	     -0.00545404	     -0.01243014	      0.02722793	     -0.03048345	     -0.02333823	      0.01441728	     -0.00731434	     -0.01547426	      0.03145587	     -0.03809374
